# xmcd
#
# Track frame offsets:
#	150
#	11180
#	27366
#	41856
#	56527
#	71753
#	92042
#	105699
#	119439
#	133258
#
# Disc length: 1955
#
# Revision: 2
# Processed by: cddbd v1.5.1PL0 Copyright (c) Steve Scherf et al.
# Submitted via: audiograbber 1.81.02
# Normalized: r1:DSETVAR1
#
DISCID=9207a10a
DTITLE=Various Artist - Hit auf Hit Express 7
DYEAR=2003
DGENRE=
TTITLE0=Marc Pircher - Hey Diandl spürst es so wie i
TTITLE1=Ireen Sheer - Ich bin stark
TTITLE2=Petra Frey - Hey Amigo tanz mit mir
TTITLE3=Monika Martin - Wir schaffen das
TTITLE4=Nockalm Quintett - Sonny Blue
TTITLE5=Andy Borg - Liebe ist unsterblich
TTITLE6=Alpenrebellen - Herzklopfenzeit
TTITLE7=Vincent and Fernando - Für immer und ewig
TTITLE8=Paldauer - Ich bin da um dich zu lieben
TTITLE9=Axel Becker - Wie Sterne strahlen deine Augen
EXTD=
EXTT0=
EXTT1=
EXTT2=
EXTT3=
EXTT4=
EXTT5=
EXTT6=
EXTT7=
EXTT8=
EXTT9=
PLAYORDER=
